<?xml version="1.0" encoding="UTF-8"?>
<svg xmlns="http://www.w3.org/2000/svg" viewBox="0 0 1200 630" width="1200" height="630" role="img" aria-label="Burp Suite Professional complete guide">
  <defs>
    <linearGradient id="title-grad" x1="0" y1="0" x2="1" y2="0">
      <stop offset="0" stop-color="#ededef"/>
      <stop offset="1" stop-color="#22d3ee"/>
    </linearGradient>
    <linearGradient id="accent-grad" x1="0" y1="0" x2="1" y2="0">
      <stop offset="0" stop-color="#22d3ee"/>
      <stop offset="1" stop-color="#a78bfa"/>
    </linearGradient>
    <pattern id="grid" x="0" y="0" width="48" height="48" patternUnits="userSpaceOnUse">
      <path d="M48 0 L0 0 0 48" fill="none" stroke="#0d0d12" stroke-width="1"/>
    </pattern>
    <radialGradient id="glow" cx="50%" cy="42%" r="60%">
      <stop offset="0" stop-color="#22d3ee" stop-opacity="0.10"/>
      <stop offset="1" stop-color="#22d3ee" stop-opacity="0"/>
    </radialGradient>
  </defs>
  <rect width="1200" height="630" fill="#000000"/>
  <rect width="1200" height="630" fill="url(#grid)"/>
  <rect width="1200" height="630" fill="url(#glow)"/>
  <text x="60" y="62" font-family="ui-monospace, 'SFMono-Regular', Menlo, Consolas, monospace" font-size="14" fill="#22d3ee" letter-spacing="0.18em" font-weight="500">[ TOOL DEEP-DIVE · WEB SECURITY · 2026 ]</text>
  <g transform="translate(940, 44)">
    <rect x="0" y="0" width="200" height="32" rx="16" fill="#0a0a12" stroke="#1f1f2a" stroke-width="1"/>
    <circle cx="20" cy="16" r="5" fill="#f59e0b"/>
    <text x="34" y="21" font-family="ui-monospace, monospace" font-size="13" fill="#ededef" letter-spacing="0.06em">BUG BOUNTY ARSENAL</text>
  </g>
  <text x="600" y="260" text-anchor="middle" font-family="ui-monospace, 'SFMono-Regular', Menlo, Consolas, monospace" font-size="148" font-weight="800" fill="url(#title-grad)" letter-spacing="-0.04em">BURP SUITE PRO</text>
  <text x="600" y="335" text-anchor="middle" font-family="ui-monospace, 'SFMono-Regular', Menlo, Consolas, monospace" font-size="30" font-weight="700" fill="url(#accent-grad)" letter-spacing="0.05em">PROXY · INTRUDER · REPEATER · COLLABORATOR</text>
  <text x="600" y="385" text-anchor="middle" font-family="ui-monospace, 'SFMono-Regular', Menlo, Consolas, monospace" font-size="20" font-weight="500" fill="#9ba0a8" letter-spacing="0.04em">the working bug bounty hunter's workflow</text>
  <g transform="translate(60, 510)" font-family="ui-monospace, monospace" font-size="16">
    <text x="0" y="0" fill="#22d3ee">hunter@kali</text>
    <text x="105" y="0" fill="#9ba0a8">:</text>
    <text x="113" y="0" fill="#a78bfa">~</text>
    <text x="125" y="0" fill="#9ba0a8">$</text>
    <text x="141" y="0" fill="#ededef">curl -x http://127.0.0.1:8080 https://target.com/api/v1/user</text>
    <text x="141" y="22" fill="#ededef">Intruder: payload-set sniper · pitchfork · cluster-bomb</text>
  </g>
  <text x="60" y="600" font-family="ui-monospace, 'SFMono-Regular', Menlo, monospace" font-size="15" fill="#9ba0a8" letter-spacing="0.04em">cybersecurityelite.com</text>
  <g transform="translate(1075, 555)" stroke="#22d3ee" stroke-width="3" fill="none" stroke-linejoin="round" stroke-linecap="round">
    <rect x="0" y="0" width="70" height="50" rx="6"/>
    <line x1="0" y1="14" x2="70" y2="14"/>
    <path d="M 12 28 L 22 36 L 12 44"/>
    <line x1="30" y1="44" x2="50" y2="44"/>
  </g>
</svg>
